<svg xmlns="http://www.w3.org/2000/svg" xmlns:xlink="http://www.w3.org/1999/xlink" viewBox="0 0 340.28 319.6"><defs><style>.a{fill:url(#a);}</style><linearGradient id="a" x1="203" y1="512.88" x2="428.81" y2="287.07" gradientUnits="userSpaceOnUse"><stop offset="0" stop-color="#f15b66"/><stop offset="1" stop-color="#f79459"/></linearGradient></defs><path class="a" d="M310.71,559.89a149.43,149.43,0,0,1-51.26-10.52c-46.22-18.54-77.89-51.19-94.39-98.26-1.34-3.84-2.95-5.31-7-4.94a119.53,119.53,0,0,1-13,.07c-5.56-.11-9.38-3.53-9.39-8.25s3.56-7.95,9.36-8.18c1.83-.07,3.66,0,5.49,0,8.75,0,8.81,0,7.55-8.41a145,145,0,0,1-.24-40.82c.45-3.32-.47-4.15-3.53-4-3.32.17-6.66.13-10,0-5.14-.2-8.45-3.28-8.65-7.83s3.39-8.23,8.63-8.44c4.49-.19,9-.17,13.49,0,2.8.11,3.95-.45,4.93-3.62,18.45-59.13,57.52-97.79,117.81-111.8,55.59-12.93,105.5,1.34,147,40.94,28.78,27.48,44.47,61.74,47.84,101.53a154,154,0,0,1-11,72.34,160,160,0,0,1-29.12,46.57,157.62,157.62,0,0,1-74.68,47.22C346.23,557.74,331.54,560,310.71,559.89ZM308,308.73c0,6.49-.06,13,0,19.48,0,2.32-.5,3.63-3.15,4.05a65.78,65.78,0,0,0-41.39,23.66c-1.88,2.26-3.19,2.42-5.75.89-10.55-6.34-21.27-12.4-32-18.52-5.31-3-10-2.26-12.71,2S212,350.16,217,353c10.8,6.2,21.72,12.21,32.61,18.27,1.79,1,3.43,1.64,2.3,4.46-6.35,15.82-5.47,31.95-.89,47.92,1,3.58.11,4.64-2.52,6.11q-15.55,8.7-31,17.65c-5.36,3.13-7,8.12-4.49,12.52s7.58,5.1,13.07,2c10.39-6,20.84-11.84,31.09-18,3.06-1.85,4.68-1.55,7,1.17a65.51,65.51,0,0,0,39.33,22.84c3.9.71,4.77,2.06,4.71,5.66-.18,12.15,0,24.31-.08,36.46,0,4.48,1.5,7.88,6,9.18,5.6,1.61,10.34-2.29,10.4-8.69.12-12.66.07-25.31,0-38,0-2.28-.05-3.82,3.14-4.35a65.4,65.4,0,0,0,41-23.35c2.14-2.58,3.77-2.73,6.59-1,10.27,6.17,20.7,12.08,31.08,18.05,2.3,1.32,4.59,2.82,7.47,2.1,3.51-.88,6-2.83,6.69-6.57.75-4.11-.87-7.11-4.43-9.17l-32.82-19c-1.69-1-3.64-1.6-2.54-4.46,6.3-16.39,6.12-32.85,0-49.25-.82-2.18.17-2.94,1.78-3.83,4.37-2.42,8.67-5,13-7.43,6.92-4,13.89-7.89,20.75-12,4-2.37,5.51-7.93,3.49-11.73-1.93-3.6-6.64-5.08-10.87-3.31a43.67,43.67,0,0,0-5.32,2.61c-9.47,5.53-19,11-28.32,16.76-2.85,1.76-4.34,1.48-6.52-1.09C358,342.8,344.42,334.88,328,332.32c-3.39-.53-3.4-2.3-3.39-4.78q.07-18.5,0-37c0-6.1-3.43-9.87-8.74-9.87-4.63,0-7.75,3.7-7.83,9.55C308,296.41,308,302.57,308,308.73Zm149.54,96.8c4.26,0,6.52-1.67,6.65-5.25a4.91,4.91,0,0,0-5.14-5.48c-3.48-.1-5.59,2.07-5.65,5.55C453.38,403.4,454.36,406,457.57,405.53Zm-284.23,0c3.48-.09,5.74-1.85,5.8-5.06.06-3-1.48-5.6-5-5.62-3.21,0-5.43,1.61-5.62,5.05S170.14,405.09,173.34,405.49ZM382.25,523.13c.06,3.58,1.84,5.68,5.08,5.85a5,5,0,0,0,5.62-5.1,4.93,4.93,0,0,0-5.07-5.58C384.59,518.17,382.66,520,382.25,523.13ZM244.89,271.28c-2.89.43-5.14,2-5.23,5.26-.1,3.52,2.17,5.6,5.56,5.58,3.22,0,5.15-2.14,5.19-5.41S248.31,271.77,244.89,271.28Zm142.58,0c-3.27.42-5.21,2.25-5.26,5.79s1.88,5.26,5.17,5.15,5.73-2,5.63-5.55C392.92,273.51,390.91,271.62,387.47,271.28Zm-142.56,247c-3.77-.26-4.95,2.41-5.15,5.2a5.29,5.29,0,1,0,10.57.41C250.46,520.29,248.32,518.52,244.91,518.24Zm19.26-118a52.15,52.15,0,1,0,52.33-52.17A51.92,51.92,0,0,0,264.17,400.23Z" transform="translate(-135.68 -240.3)"/></svg>